# xmcd
#
# Track frame offsets:
#	150
#	15629
#	29730
#	50219
#	67469
#	74830
#	80177
#	91241
#	95776
#	102202
#	121407
#	135913
#	145064
#	153034
#	159039
#	165339
#	170885
#	185100
#	192893
#	199997
#	209082
#	212496
#	224497
#	233346
#	246193
#	249773
#	257915
#	270066
#	278888
#	290478
#	296896
#	300906
#	307760
#	324045
#
# Disc length: 4411 seconds
#
# Revision: 0
# Processed by: cddbd v1.5.2PL0 Copyright (c) Steve Scherf et al.
# Submitted via: dBpowerAMP V4.0
#
DISCID=f9113922
DTITLE=Schola Bellarmina - L'année liturgique en grégorien - vol. 4, CD 7
DYEAR=1900
DGENRE=
TTITLE0=Cantemus
TTITLE1=Vinea
TTITLE2=Attende
TTITLE3=Sicut cervus
TTITLE4=Alleluia
TTITLE5=Confitemini
TTITLE6=Laudate
TTITLE7=Alleluia
TTITLE8=Et valde mane
TTITLE9=Introitus - Resurrexi
TTITLE10=Graduale - Haec dies
TTITLE11=Alleluia - Pascha nostrum
TTITLE12=Sequentia - Victime paschalis laudes
TTITLE13=Offertorium - Terra tremuit
TTITLE14=Communio - Pascha nostrum
TTITLE15=Orgue: Froberger: Sarabande
TTITLE16=Introitus - Introduxit vos Dominus
TTITLE17=Graduale - Dicat nunc Israel
TTITLE18=Alleluia - Angelus Domini
TTITLE19=Offertorium - Angelus Domini
TTITLE20=Communio - Surrexit Dominus
TTITLE21=Introitus - Quasimodo
TTITLE22=Alleluia - In die resurrectionis
TTITLE23=Alleluia - Post dies octo
TTITLE24=Communio - Mitte manum tuam
TTITLE25=Orgue: Froberger: Sarabande
TTITLE26=Introitus - Misericordia
TTITLE27=Alleluia - Cognoverunt
TTITLE28=Alleluia - Ego sum pastor bonus
TTITLE29=Offertorium - Deus, Deus meus
TTITLE30=Communio - Ego sum
TTITLE31=Orgue: Prélude de J. August Peyer
TTITLE32=Introitus - Jubilate Deo
TTITLE33=Alleluia - Redemptionem
EXTD=Stefan Jetchick: www.inquisition.ca
EXTT0=
EXTT1=
EXTT2=
EXTT3=
EXTT4=
EXTT5=
EXTT6=
EXTT7=
EXTT8=
EXTT9=
EXTT10=
EXTT11=
EXTT12=
EXTT13=
EXTT14=
EXTT15=
EXTT16=
EXTT17=
EXTT18=
EXTT19=
EXTT20=
EXTT21=
EXTT22=
EXTT23=
EXTT24=
EXTT25=
EXTT26=
EXTT27=
EXTT28=
EXTT29=
EXTT30=
EXTT31=
EXTT32=
EXTT33=
PLAYORDER=
